<svg xmlns="http://www.w3.org/2000/svg" viewBox="0 0 48 48" fill="none" role="img" aria-label="White Athens CRM">
  <defs>
    <linearGradient id="wa-bg" x1="4" y1="4" x2="44" y2="44" gradientUnits="userSpaceOnUse">
      <stop stop-color="#2563eb"/>
      <stop offset="1" stop-color="#1d4ed8"/>
    </linearGradient>
    <linearGradient id="wa-col" x1="24" y1="10" x2="24" y2="38" gradientUnits="userSpaceOnUse">
      <stop stop-color="#ffffff"/>
      <stop offset="1" stop-color="#dbeafe"/>
    </linearGradient>
  </defs>
  <rect width="48" height="48" rx="12" fill="url(#wa-bg)"/>
  <!-- Column capital -->
  <path d="M14 14h20l-2.5 4H16.5L14 14z" fill="url(#wa-col)" opacity="0.95"/>
  <!-- Column shaft -->
  <rect x="18" y="18" width="12" height="16" rx="1.5" fill="url(#wa-col)" opacity="0.9"/>
  <!-- Column flutes -->
  <rect x="20.5" y="19" width="1.2" height="14" rx="0.6" fill="#2563eb" opacity="0.25"/>
  <rect x="23.4" y="19" width="1.2" height="14" rx="0.6" fill="#2563eb" opacity="0.25"/>
  <rect x="26.3" y="19" width="1.2" height="14" rx="0.6" fill="#2563eb" opacity="0.25"/>
  <!-- Base -->
  <path d="M15 34h18l-1.5 3H16.5L15 34z" fill="url(#wa-col)" opacity="0.85"/>
  <!-- Connection nodes (CRM network) -->
  <circle cx="34" cy="16" r="3" fill="#fff" opacity="0.95"/>
  <circle cx="34" cy="24" r="2.5" fill="#93c5fd"/>
  <circle cx="34" cy="31" r="2" fill="#bfdbfe"/>
  <path d="M30 18h2.5M30 24h2.2M30 30h2" stroke="#fff" stroke-width="1.2" stroke-linecap="round" opacity="0.7"/>
</svg>
